<?xml version="1.0" encoding="UTF-8" standalone="no"?>
<svg
   xmlns:dc="http://purl.org/dc/elements/1.1/"
   xmlns:cc="http://creativecommons.org/ns#"
   xmlns:rdf="http://www.w3.org/1999/02/22-rdf-syntax-ns#"
   xmlns:svg="http://www.w3.org/2000/svg"
   xmlns="http://www.w3.org/2000/svg"
   viewBox="0 0 36 36"
   height="36"
   width="36"
   xml:space="preserve"
   id="svg260"
   version="1.1"><metadata
     id="metadata266"><rdf:RDF><cc:Work
         rdf:about=""><dc:format>image/svg+xml</dc:format><dc:type
           rdf:resource="http://purl.org/dc/dcmitype/StillImage" /><dc:title></dc:title></cc:Work></rdf:RDF></metadata><defs
     id="defs264"><clipPath
       id="clipPath276"
       clipPathUnits="userSpaceOnUse"><path
         id="path274"
         d="M 0,27 H 27 V 0 H 0 Z" /></clipPath></defs><g
     transform="matrix(1.3333333,0,0,-1.3333333,0,36)"
     id="g268"><g
       id="g270"><g
         clip-path="url(#clipPath276)"
         id="g272"><g
           transform="translate(0,13.5)"
           id="g278"><path
             id="path280"
             style="fill:#ffffff;fill-opacity:1;fill-rule:nonzero;stroke:none"
             d="M 0,0 C 0,7.456 6.044,13.5 13.5,13.5 20.956,13.5 27,7.456 27,0 27,-7.456 20.956,-13.5 13.5,-13.5 6.044,-13.5 0,-7.456 0,0" /></g><g
           transform="translate(5.1392,13.5)"
           id="g282"><path
             id="path284"
             style="fill:#81b3d3;fill-opacity:1;fill-rule:nonzero;stroke:none"
             d="m 0,0 c 0,4.618 3.743,8.361 8.361,8.361 4.617,0 8.36,-3.743 8.36,-8.361 0,-4.617 -3.743,-8.36 -8.36,-8.36 C 3.743,-8.36 0,-4.617 0,0" /></g></g></g></g></svg>