<?xml version="1.0" encoding="UTF-8" standalone="no"?>
<svg
   xmlns:dc="http://purl.org/dc/elements/1.1/"
   xmlns:cc="http://creativecommons.org/ns#"
   xmlns:rdf="http://www.w3.org/1999/02/22-rdf-syntax-ns#"
   xmlns:svg="http://www.w3.org/2000/svg"
   xmlns="http://www.w3.org/2000/svg"
   viewBox="0 0 32 29.841734"
   height="23"
   width="21"
   xml:space="preserve"
   id="svg10"
   version="1.1"><metadata
     id="metadata16"><rdf:RDF><cc:Work
         rdf:about=""><dc:format>image/svg+xml</dc:format><dc:type
           rdf:resource="http://purl.org/dc/dcmitype/StillImage" /><dc:title></dc:title></cc:Work></rdf:RDF></metadata><defs
     id="defs14"><clipPath
       id="clipPath26"
       clipPathUnits="userSpaceOnUse"><path
         id="path24"
         d="M 0,22.381 H 24 V 0 H 0 Z" /></clipPath></defs><g
     transform="matrix(1.3333333,0,0,-1.3333333,0,29.841733)"
     id="g18"><g
       id="g20"><g
         clip-path="url(#clipPath26)"
         id="g22"><g
           transform="translate(23,12)"
           id="g28"><path
             id="path30"
             style="fill:#b2b2b2;fill-opacity:1;fill-rule:nonzero;stroke:none"
             d="m 0,0 v -0.044 z m -18,1 h -4 v -12 h 4 z m 9.2,8 -6.6,-6.6 C -15.8,2.1 -16,1.6 -16,1 V -9 c 0,-1.1 0.9,-2 2,-2 h 9 c 0.8,0 1.5,0.5 1.8,1.2 l 3,7.1 c 0.1,0.2 0.1,0.5 0.1,0.7 V 0 H 0 c 0,1.1 -0.9,2 -2,2 h -6.3 l 1,4.6 v 0.3 c 0,0.4 -0.2,0.8 -0.4,1.1 z M -20,-1 v -8 8 M -9.617,5.354 -10.254,2.425 -10.781,0 h 2.481 6.2 v -2 c 0,-0.018 0,-0.037 10e-4,-0.058 L -5,-9 h -9 v 9.971 l 0.014,0.015 4.369,4.368" /></g></g></g></g></svg>